#N canvas 102 143 867 524 12;
#X obj -12 -349 cnv 15 200 500 empty empty empty 20 12 0 14 -260097
-66577 0;
#X obj 12 -71 s recordNextBar;
#X obj 12 -88 bng 15 250 50 0 empty empty empty 17 7 0 10 -262144 -1
-1;
#X obj 12 109 s globalGain;
#X obj 12 44 loadbang;
#X msg 12 66 1;
#X floatatom 12 88 5 0 0 0 - - -;
#X obj 12 0 r currentlyRecording;
#X obj 12 22 tgl 15 0 empty empty empty 17 7 0 10 -262144 -1 -1 0 1
;
#X obj 12 -207 s staticMode;
#X obj 12 -224 tgl 15 0 empty empty empty 17 7 0 10 -262144 -1 -1 0
1;
#X obj 12 -268 loadbang;
#X msg 12 -246 0;
#X text 29 -227 static cursor;
#X text 31 -92 record next bar;
#X text 55 86 gain;
#X obj 12 -27 s recordNow;
#X text 30 -47 record / stop;
#X obj 12 -115 s retriggerLength;
#X floatatom 12 -136 5 0 0 0 - - -;
#X text 56 -137 retrigger length;
#X obj 12 -180 loadbang;
#X msg 12 -158 1;
#X obj 12 -44 tgl 15 0 empty empty empty 17 7 0 10 -262144 -1 -1 0
1;
#X obj 191 -349 cnv 15 150 500 empty empty empty 20 12 0 14 -4160 -66577
0;
#X floatatom 204 -180 5 0 0 0 - - -;
#X obj 204 35 s requestNbBeats;
#X floatatom 204 -30 5 0 0 0 - - -;
#X obj 204 -9 max 1;
#X obj 204 -159 s tempo;
#X obj 204 -333 loadbang;
#X obj 204 -202 frToMs;
#X obj 204 -224 / 60;
#X floatatom 204 -289 5 0 0 0 - - -;
#X obj 245 13 s nbBeats;
#X obj 204 13 t f f;
#X obj 204 -74 loadbang;
#X msg 204 -52 16;
#X obj 204 -246 *;
#X obj 257 -290 r nbBeats;
#X obj 204 -268 trigBoth;
#X msg 204 -311 20;
#X text 234 -53 time signature;
#X text 233 -311 tempo;
#X obj 204 -106 s swing;
#X floatatom 204 -127 5 0 0 0 - - -;
#X text 243 -128 0 to 1 swing;
#X obj 344 -349 cnv 15 250 500 empty empty empty 20 12 0 14 -4034 -66577
0;
#X obj 371 -294 s refreshSamples;
#X obj 354 -272 s loadNextSamples;
#X obj 354 -201 s loadSample;
#X msg 354 -223 0;
#X msg 386 -223 1;
#X msg 418 -223 2;
#X floatatom 354 -2 5 0 0 0 - - -;
#X obj 354 19 max 1;
#X obj 354 63 s requestMaxPitch;
#X obj 354 -97 tabwrite pitchOffsets;
#X floatatom 354 -140 5 0 0 0 - - -;
#X obj 354 -119 t f b;
#X msg 395 -119 0;
#X floatatom 427 -140 5 0 0 0 - - -;
#X obj 427 -119 t f b;
#X floatatom 500 -140 5 0 0 0 - - -;
#X obj 500 -119 t f b;
#X msg 468 -119 1;
#X msg 541 -119 2;
#X obj 354 41 t f f;
#X obj 395 41 s maxPitch;
#X obj 354 -46 loadbang;
#X obj 354 -316 t b b;
#X obj 354 -333 bng 15 250 50 0 empty empty empty 17 7 0 10 -262144
-1 -1;
#X msg 354 -24 24;
#X text 352 -243 pick other samples;
#X text 374 -338 pick three other samples;
#X text 354 -160 pitch offsets;
#X text 395 -2 pitch range;
#X obj 597 -349 cnv 15 250 500 empty empty empty 20 12 0 14 -159808
-66577 0;
#X obj 623 -312 s requestBackgroundThreshold;
#X obj 623 -269 s requestSaturationThreshold;
#X obj 624 -183 s requestSizeThreshold;
#X obj 624 -226 s requestMaxTokens;
#X floatatom 623 -333 5 0 0 0 - - -;
#X floatatom 623 -290 5 0 0 0 - - -;
#X floatatom 624 -247 5 0 0 0 - - -;
#X floatatom 624 -204 5 0 0 0 - - -;
#X text 668 -331 typical 21;
#X text 668 -288 typical 80;
#X text 668 -245 typical 32;
#X text 668 -202 typical 10;
#X floatatom 624 -161 5 0 0 0 - - -;
#X text 668 -159 typical 5;
#X obj 624 -140 s requestClosenessLimit;
#X floatatom 624 -118 5 0 0 0 - - -;
#X floatatom 624 -75 5 0 0 0 - - -;
#X text 668 -116 typical 160;
#X text 668 -73 typical 120;
#X obj 624 -54 s requestDetectionH;
#X obj 624 -97 s requestDetectionW;
#X obj 624 -32 tgl 15 0 empty empty empty 17 7 0 10 -262144 -1 -1 0
1;
#X obj 624 -15 s requestCaptureProcessing;
#X obj 624 7 bng 15 250 50 0 empty empty empty 17 7 0 10 -262144 -1
-1;
#X obj 624 24 s requestBackgroundCapture;
#X obj 12 -295 s playPause;
#X obj 12 -312 tgl 15 0 empty empty empty 17 7 0 10 -262144 -1 -1 0
1;
#X obj 12 -334 loadbang;
#X text 30 -316 play / pause;
#X connect 2 0 1 0;
#X connect 4 0 5 0;
#X connect 5 0 6 0;
#X connect 6 0 3 0;
#X connect 7 0 8 0;
#X connect 10 0 9 0;
#X connect 11 0 12 0;
#X connect 12 0 10 0;
#X connect 19 0 18 0;
#X connect 21 0 22 0;
#X connect 22 0 19 0;
#X connect 23 0 16 0;
#X connect 25 0 29 0;
#X connect 27 0 28 0;
#X connect 28 0 35 0;
#X connect 30 0 41 0;
#X connect 31 0 25 0;
#X connect 32 0 31 0;
#X connect 33 0 40 0;
#X connect 35 0 26 0;
#X connect 35 1 34 0;
#X connect 36 0 37 0;
#X connect 37 0 27 0;
#X connect 38 0 32 0;
#X connect 39 0 40 1;
#X connect 40 0 38 0;
#X connect 40 1 38 1;
#X connect 41 0 33 0;
#X connect 45 0 44 0;
#X connect 51 0 50 0;
#X connect 52 0 50 0;
#X connect 53 0 50 0;
#X connect 54 0 55 0;
#X connect 55 0 67 0;
#X connect 58 0 59 0;
#X connect 59 0 57 0;
#X connect 59 1 60 0;
#X connect 60 0 57 1;
#X connect 61 0 62 0;
#X connect 62 0 57 0;
#X connect 62 1 65 0;
#X connect 63 0 64 0;
#X connect 64 0 57 0;
#X connect 64 1 66 0;
#X connect 65 0 57 1;
#X connect 66 0 57 1;
#X connect 67 0 56 0;
#X connect 67 1 68 0;
#X connect 69 0 72 0;
#X connect 70 0 49 0;
#X connect 70 1 48 0;
#X connect 71 0 70 0;
#X connect 72 0 54 0;
#X connect 82 0 78 0;
#X connect 83 0 79 0;
#X connect 84 0 81 0;
#X connect 85 0 80 0;
#X connect 90 0 92 0;
#X connect 93 0 98 0;
#X connect 94 0 97 0;
#X connect 99 0 100 0;
#X connect 101 0 102 0;
#X connect 104 0 103 0;
#X connect 105 0 104 0;
#X coords 0 524 1 523 800 600 0;
