#N canvas 479 236 340 400 12;
#X obj 55 111 f;
#X obj 55 199 spigot;
#X msg 55 89 0;
#X obj 82 111 + 1;
#X obj 55 133 t f f;
#X obj 55 67 t b f;
#X obj 87 243 outlet;
#X obj 55 45 inlet;
#X obj 105 155 - 1;
#X obj 87 177 <=;
#X obj 55 221 t b f;
#X obj 55 155 t f f;
#X connect 0 0 4 0;
#X connect 1 0 10 0;
#X connect 2 0 0 0;
#X connect 3 0 0 1;
#X connect 4 0 11 0;
#X connect 4 1 3 0;
#X connect 5 0 2 0;
#X connect 5 1 8 0;
#X connect 7 0 5 0;
#X connect 8 0 9 1;
#X connect 9 0 1 1;
#X connect 10 0 0 0;
#X connect 10 1 6 0;
#X connect 11 0 1 0;
#X connect 11 1 9 0;
