#N canvas 513 6 457 782 12;
#X obj 79 8 loadbang;
#X obj 79 96 f;
#X obj 106 96 + 1;
#X obj 79 140 t f f;
#X obj 79 118 % 16;
#X floatatom 79 162 5 0 0 0 - - -;
#X obj 79 -9 bng 15 250 50 0 empty empty empty 17 7 0 10 -262144 -1
-1;
#X obj 79 731 s playBeat;
#X obj 133 98 r nbBeats;
#X obj 120 30 r tempo;
#X obj 79 30 metro;
#X obj 79 74 spigot;
#X obj 118 52 r playPause;
#X obj 79 466 spigot;
#X obj 118 422 r staticMode;
#X obj 118 444 invert;
#X obj 127 466 spigot;
#X obj 166 444 r staticMode;
#X obj 79 400 t f b;
#X obj 79 488 t f f;
#X obj 93 510 f;
#X obj 145 488 r staticMode;
#X obj 145 510 t b f;
#X obj 145 532 spigot;
#X obj 111 641 counter;
#X msg 145 554 0;
#X obj 157 576 r retriggerLength;
#X floatatom 157 620 5 0 0 0 - - -;
#X obj 93 532 t f b;
#X obj 93 707 %;
#X obj 111 685 r nbBeats;
#X obj 93 663 +;
#X obj 157 598 - 1;
#X obj 175 271 r tempo;
#X obj 79 183 t f f;
#X obj 79 227 pack f f;
#X obj 79 205 % 2;
#X obj 79 313 t b f;
#X obj 79 357 f;
#X obj 79 335 delay;
#X obj 120 315 * 0;
#X floatatom 79 379 5 0 0 0 - - -;
#X obj 120 271 r swing;
#X obj 120 293 trigBoth;
#X obj 79 249 route 1 0;
#X connect 0 0 10 0;
#X connect 1 0 4 0;
#X connect 2 0 1 1;
#X connect 3 0 5 0;
#X connect 3 1 2 0;
#X connect 4 0 3 0;
#X connect 5 0 34 0;
#X connect 6 0 0 0;
#X connect 8 0 4 1;
#X connect 9 0 10 1;
#X connect 10 0 11 0;
#X connect 11 0 1 0;
#X connect 12 0 11 1;
#X connect 13 0 19 0;
#X connect 14 0 15 0;
#X connect 15 0 13 1;
#X connect 16 0 20 0;
#X connect 17 0 16 1;
#X connect 18 0 13 0;
#X connect 18 1 16 0;
#X connect 19 0 7 0;
#X connect 19 1 20 1;
#X connect 20 0 28 0;
#X connect 21 0 22 0;
#X connect 22 0 23 0;
#X connect 22 1 23 1;
#X connect 23 0 25 0;
#X connect 24 0 31 1;
#X connect 25 0 24 3;
#X connect 26 0 32 0;
#X connect 27 0 24 4;
#X connect 28 0 31 0;
#X connect 28 1 24 0;
#X connect 29 0 7 0;
#X connect 30 0 29 1;
#X connect 31 0 29 0;
#X connect 32 0 27 0;
#X connect 33 0 43 1;
#X connect 34 0 36 0;
#X connect 34 1 35 1;
#X connect 35 0 44 0;
#X connect 36 0 35 0;
#X connect 37 0 39 0;
#X connect 37 1 38 1;
#X connect 38 0 41 0;
#X connect 39 0 38 0;
#X connect 40 0 39 1;
#X connect 41 0 18 0;
#X connect 42 0 43 0;
#X connect 43 0 40 0;
#X connect 43 1 40 1;
#X connect 44 0 37 0;
#X connect 44 1 41 0;
