#N canvas 127 3 999 732 10;
#X obj 167 97 makefilename %s/*;
#X obj 167 119 folder_list;
#X obj 167 141 symbol2list /;
#X obj 167 163 t l l;
#X obj 212 188 list length;
#X obj 212 210 - 1;
#X obj 167 234 list-idx;
#X obj 167 257 t l l;
#X obj 200 284 symbol2list .;
#X obj 200 306 t l l;
#X obj 245 331 list length;
#X obj 245 353 - 1;
#X obj 200 377 list-idx;
#X obj 200 400 sel wav;
#X msg 200 422 1;
#X msg 239 421 0;
#X obj 167 448 spigot;
#X obj 167 572 msgfile;
#X msg 289 555 clear;
#X msg 167 553 add \$1;
#X obj 167 470 list prepend;
#X obj 167 492 list2symbol /;
#X obj 167 60 trigger symbol symbol bang bang;
#X obj 44 79 f 0;
#X obj 77 79 + 1;
#X msg 59 60 0;
#X obj 167 514 t s b;
#X msg 32 228 goto \$1 \, this;
#X obj 167 41 inlet;
#X obj 32 98 inlet;
#X obj 350 79 s \$0-resetCounter;
#X obj 59 41 r \$0-resetCounter;
#X obj 167 591 outlet;
#X obj 44 171 %;
#X obj 44 133 f;
#X obj 44 152 + 1;
#X connect 0 0 1 0;
#X connect 1 0 2 0;
#X connect 2 0 3 0;
#X connect 3 0 6 0;
#X connect 3 1 4 0;
#X connect 4 0 5 0;
#X connect 5 0 6 1;
#X connect 6 0 7 0;
#X connect 7 0 16 0;
#X connect 7 1 8 0;
#X connect 8 0 9 0;
#X connect 9 0 12 0;
#X connect 9 1 10 0;
#X connect 10 0 11 0;
#X connect 11 0 12 1;
#X connect 12 0 13 0;
#X connect 13 0 14 0;
#X connect 13 1 15 0;
#X connect 14 0 16 1;
#X connect 15 0 16 1;
#X connect 16 0 20 0;
#X connect 17 0 32 0;
#X connect 18 0 17 0;
#X connect 19 0 17 0;
#X connect 20 0 21 0;
#X connect 21 0 26 0;
#X connect 22 0 0 0;
#X connect 22 1 20 1;
#X connect 22 2 18 0;
#X connect 22 3 30 0;
#X connect 23 0 24 0;
#X connect 24 0 23 1;
#X connect 24 0 33 1;
#X connect 25 0 23 1;
#X connect 26 0 19 0;
#X connect 26 1 23 0;
#X connect 27 0 17 0;
#X connect 28 0 22 0;
#X connect 29 0 34 0;
#X connect 31 0 25 0;
#X connect 33 0 34 1;
#X connect 33 0 27 0;
#X connect 34 0 35 0;
#X connect 35 0 33 0;
