#N canvas 627 60 901 720 10;
#X obj 156 306 sendOSC;
#X obj 156 78 loadbang;
#X msg 183 135 connect 127.0.0.1 12000;
#X msg 183 154 disconnect;
#X msg 156 116 send /handshake;
#X obj 156 97 t b b;
#X obj -184 485 s nbNotes;
#X floatatom -184 467 5 0 0 0 - - -;
#X obj 244 404 r nbNotes;
#X msg 259 474 \; nPitch resize \$1;
#X obj -450 602 tabGetMany;
#X obj -450 621 tabwrite nBeat;
#X msg 275 506 \; nGain resize \$1;
#X msg 244 442 \; nBeat resize \$1;
#X obj -402 545 r nbNotes;
#X obj -421 583 f;
#X obj -450 545 t b b l;
#X msg -450 583 1;
#X obj -402 564 + 1;
#X obj -337 602 tabGetMany;
#X obj -289 545 r nbNotes;
#X obj -308 583 f;
#X obj -337 545 t b b l;
#X msg -337 583 1;
#X obj -289 564 + 1;
#X obj -224 602 tabGetMany;
#X obj -176 545 r nbNotes;
#X obj -195 583 f;
#X obj -224 545 t b b l;
#X msg -224 583 1;
#X obj -176 564 + 1;
#X obj -8 602 tabGetMany;
#X obj 40 545 r nbNotes;
#X obj 21 583 f;
#X obj -8 545 t b b l;
#X msg -8 583 1;
#X obj 40 564 + 1;
#X obj -337 621 tabwrite nPitch;
#X obj -224 621 tabwrite nGain;
#X obj -8 621 tabwrite nId;
#X floatatom -244 467 5 0 0 0 - - -;
#X obj -244 485 s nbBeats;
#X obj -444 194 r playBeat;
#X msg -444 213 send /currentBeat \$1;
#X obj -201 42 r requestNbBeats;
#X msg -201 61 send /requestNbBeats \$1;
#X floatatom -124 467 5 0 0 0 - - -;
#X obj -124 485 s maxPitch;
#X obj -201 80 r requestMaxPitch;
#X obj -116 602 tabGetMany;
#X obj -68 545 r nbNotes;
#X obj -87 583 f;
#X obj -116 545 t b b l;
#X msg -116 583 1;
#X obj -68 564 + 1;
#X obj -116 621 tabwrite nDur;
#X msg -201 99 send /requestMaxPitch \$1;
#X obj 244 423 t f f f f f;
#X msg 307 570 \; nId resize \$1;
#X msg 291 538 \; nDur resize \$1;
#X obj -444 42 r requestBackgroundThreshold;
#X obj -444 118 r requestMaxTokens;
#X obj -444 156 r requestSizeThreshold;
#X obj -444 80 r requestSaturationThreshold;
#X msg -444 61 send /requestBackgroundThreshold \$1;
#X msg -444 99 send /requestSaturationThreshold \$1;
#X msg -444 137 send /requestMaxTokens \$1;
#X msg -444 175 send /requestSizeThreshold \$1;
#X obj -451 364 dumpOSC 12001;
#X floatatom -58 467 5 0 0 0 - - -;
#X obj -58 485 s nbFinalTypes;
#X obj -201 118 r requestClosenessLimit;
#X msg -201 137 send /requestClosenessLimit \$1;
#X obj -201 156 r requestDetectionW;
#X msg -201 175 send /requestDetectionW \$1;
#X obj -201 194 r requestDetectionH;
#X msg -201 213 send /requestDetectionH \$1;
#X obj -201 232 r requestCaptureProcessing;
#X msg -201 251 send /requestCaptureProcessing \$1;
#X obj -201 270 r requestBackgroundCapture;
#X msg -201 289 send /requestBackgroundCapture;
#X obj -451 383 OSCroute /tables /tBeat /tPitch /tGain /tDur /tId /nbBeats
/nbNotes /maxPitch /nbFinalTypes /triggerBeat;
#X obj 32 485 s playBeat;
#X floatatom 32 467 5 0 0 0 - - -;
#X obj 32 393 notein 1;
#X obj 32 429 spigot;
#X obj 65 412 tgl 15 0 empty empty empty 17 7 0 10 -262144 -1 -1 0
1;
#X text 81 408 sync with midi input;
#X connect 1 0 5 0;
#X connect 2 0 0 0;
#X connect 3 0 0 0;
#X connect 4 0 0 0;
#X connect 5 0 4 0;
#X connect 5 1 2 0;
#X connect 7 0 6 0;
#X connect 8 0 57 0;
#X connect 10 0 11 0;
#X connect 10 1 11 1;
#X connect 14 0 18 0;
#X connect 15 0 10 1;
#X connect 16 0 17 0;
#X connect 16 1 15 0;
#X connect 16 2 10 2;
#X connect 17 0 10 0;
#X connect 18 0 15 1;
#X connect 19 0 37 0;
#X connect 19 1 37 1;
#X connect 20 0 24 0;
#X connect 21 0 19 1;
#X connect 22 0 23 0;
#X connect 22 1 21 0;
#X connect 22 2 19 2;
#X connect 23 0 19 0;
#X connect 24 0 21 1;
#X connect 25 0 38 0;
#X connect 25 1 38 1;
#X connect 26 0 30 0;
#X connect 27 0 25 1;
#X connect 28 0 29 0;
#X connect 28 1 27 0;
#X connect 28 2 25 2;
#X connect 29 0 25 0;
#X connect 30 0 27 1;
#X connect 31 0 39 0;
#X connect 31 1 39 1;
#X connect 32 0 36 0;
#X connect 33 0 31 1;
#X connect 34 0 35 0;
#X connect 34 1 33 0;
#X connect 34 2 31 2;
#X connect 35 0 31 0;
#X connect 36 0 33 1;
#X connect 40 0 41 0;
#X connect 42 0 43 0;
#X connect 43 0 0 0;
#X connect 44 0 45 0;
#X connect 45 0 0 0;
#X connect 46 0 47 0;
#X connect 48 0 56 0;
#X connect 49 0 55 0;
#X connect 49 1 55 1;
#X connect 50 0 54 0;
#X connect 51 0 49 1;
#X connect 52 0 53 0;
#X connect 52 1 51 0;
#X connect 52 2 49 2;
#X connect 53 0 49 0;
#X connect 54 0 51 1;
#X connect 56 0 0 0;
#X connect 57 0 13 0;
#X connect 57 1 9 0;
#X connect 57 2 12 0;
#X connect 57 3 59 0;
#X connect 57 4 58 0;
#X connect 60 0 64 0;
#X connect 61 0 66 0;
#X connect 62 0 67 0;
#X connect 63 0 65 0;
#X connect 64 0 0 0;
#X connect 65 0 0 0;
#X connect 66 0 0 0;
#X connect 67 0 0 0;
#X connect 68 0 81 0;
#X connect 69 0 70 0;
#X connect 71 0 72 0;
#X connect 72 0 0 0;
#X connect 73 0 74 0;
#X connect 74 0 0 0;
#X connect 75 0 76 0;
#X connect 76 0 0 0;
#X connect 77 0 78 0;
#X connect 78 0 0 0;
#X connect 79 0 80 0;
#X connect 80 0 0 0;
#X connect 81 1 16 0;
#X connect 81 2 22 0;
#X connect 81 3 28 0;
#X connect 81 4 52 0;
#X connect 81 5 34 0;
#X connect 81 6 40 0;
#X connect 81 7 7 0;
#X connect 81 8 46 0;
#X connect 81 9 69 0;
#X connect 81 10 83 0;
#X connect 83 0 82 0;
#X connect 84 0 85 0;
#X connect 85 0 83 0;
#X connect 86 0 85 1;
#X coords 0 0 1 1 20 35 0;
