#N canvas 106 119 646 406 10;
#X obj 123 354 writesf~ 2;
#X obj 123 88 inlet~;
#X obj 165 88 inlet~;
#X msg 243 184 start;
#X msg 294 276 stop;
#X obj 243 146 alternate;
#X obj 243 88 inlet;
#X obj 262 220 counter;
#X floatatom 262 239 5 0 0 0 - - -;
#X obj 262 203 bng 15 250 50 0 empty empty empty 17 7 0 10 -262144
-1 -1;
#X msg 262 257 open result/output-\$1.wav;
#X obj 384 84 folder_list;
#X obj 384 103 symbol2list /;
#X msg 384 65 symbol ./result/*;
#X obj 384 141 counter;
#X msg 411 122 0;
#X floatatom 384 160 5 0 0 0 - - -;
#X obj 384 46 t b b;
#X obj 384 29 bng 15 250 50 0 empty empty empty 17 7 0 10 -262144 -1
-1;
#X obj 384 122 bng 15 250 50 0 empty empty empty 17 7 0 10 -262144
-1 -1;
#X obj 384 178 + 1;
#X obj 384 10 loadbang;
#X obj 303 165 t b b;
#X obj 277 356 outlet;
#X msg 277 319 1;
#X msg 330 319 0;
#X obj 243 107 route 0 1 2;
#X obj 243 165 t b b b b;
#X connect 1 0 0 0;
#X connect 2 0 0 1;
#X connect 3 0 0 0;
#X connect 4 0 0 0;
#X connect 5 0 27 0;
#X connect 5 1 22 0;
#X connect 6 0 26 0;
#X connect 7 0 8 0;
#X connect 8 0 10 0;
#X connect 9 0 7 0;
#X connect 10 0 0 0;
#X connect 11 0 12 0;
#X connect 12 0 19 0;
#X connect 13 0 11 0;
#X connect 14 0 16 0;
#X connect 15 0 14 3;
#X connect 16 0 20 0;
#X connect 17 0 13 0;
#X connect 17 1 15 0;
#X connect 18 0 17 0;
#X connect 19 0 14 0;
#X connect 20 0 7 3;
#X connect 21 0 18 0;
#X connect 22 0 4 0;
#X connect 22 1 25 0;
#X connect 24 0 23 0;
#X connect 25 0 23 0;
#X connect 26 0 22 0;
#X connect 26 1 27 0;
#X connect 26 2 5 0;
#X connect 27 0 3 0;
#X connect 27 1 9 0;
#X connect 27 2 24 0;
#X connect 27 3 4 0;
