#N canvas 69 278 678 507 12;
#X obj 93 300 dac~;
#X msg 461 -10 \; pd dsp 1;
#X obj 461 -32 loadbang;
#X obj 121 -62 r playThis;
#X obj 121 -18 sPlayer~;
#X obj 127 300 record;
#X obj 141 145 *~;
#X floatatom 312 126 5 0 0 0 - - -;
#X obj 168 145 *~;
#X obj 471 114 r playBeat;
#X obj 471 153 spigot;
#X obj 510 136 tgl 15 0 empty empty empty 17 7 0 10 -262144 -1 -1 0
1;
#X obj 471 175 t b f;
#X obj 503 197 == 0;
#X obj 464 219 spigot;
#X obj 464 241 alternate;
#X obj 524 263 t b b;
#X obj 464 263 bng 15 250 50 0 empty empty empty 17 7 0 10 -262144
-1 -1;
#X msg 556 285 0;
#X obj 511 70 r recordNextBar;
#X msg 511 92 1;
#X obj 121 -40 route 0 1 2 3 4 5 6 7;
#X obj 312 104 r globalGain;
#X obj 127 322 s currentlyRecording;
#X obj 166 271 r recordNow;
#X obj 193 -18 sPlayer~;
#X obj 139 4 sPlayer~;
#X obj 157 26 sPlayer~;
#X obj 175 48 sPlayer~;
#X obj 211 4 sPlayer~;
#X obj 229 26 sPlayer~;
#X obj 247 48 sPlayer~;
#X msg 464 280 2;
#X connect 2 0 1 0;
#X connect 3 0 21 0;
#X connect 4 0 6 0;
#X connect 4 1 8 0;
#X connect 5 0 23 0;
#X connect 6 0 0 0;
#X connect 6 0 5 0;
#X connect 7 0 6 1;
#X connect 7 0 8 1;
#X connect 8 0 0 1;
#X connect 8 0 5 1;
#X connect 9 0 10 0;
#X connect 10 0 12 0;
#X connect 11 0 10 1;
#X connect 12 0 14 0;
#X connect 12 1 13 0;
#X connect 13 0 14 1;
#X connect 14 0 15 0;
#X connect 15 0 17 0;
#X connect 15 1 16 0;
#X connect 16 0 17 0;
#X connect 16 1 18 0;
#X connect 17 0 32 0;
#X connect 18 0 11 0;
#X connect 19 0 20 0;
#X connect 20 0 11 0;
#X connect 21 0 4 0;
#X connect 21 1 26 0;
#X connect 21 2 27 0;
#X connect 21 3 28 0;
#X connect 21 4 25 0;
#X connect 21 5 29 0;
#X connect 21 6 30 0;
#X connect 21 7 31 0;
#X connect 22 0 7 0;
#X connect 24 0 5 2;
#X connect 25 0 6 0;
#X connect 25 1 8 0;
#X connect 26 0 6 0;
#X connect 26 1 8 0;
#X connect 27 0 6 0;
#X connect 27 1 8 0;
#X connect 28 0 6 0;
#X connect 28 1 8 0;
#X connect 29 0 6 0;
#X connect 29 1 8 0;
#X connect 30 0 6 0;
#X connect 30 1 8 0;
#X connect 31 0 6 0;
#X connect 31 1 8 0;
#X connect 32 0 5 2;
