#N canvas 503 30 865 740 12;
#N canvas 0 0 450 300 (subpatch) 0;
#X array s1 59785 float 2;
#X coords 0 1 59785 -1 200 140 1 0 0;
#X restore 75 427 graph;
#X obj 100 320 soundfiler;
#X floatatom 100 342 10 0 0 0 - - -;
#X obj 100 363 s sLength;
#N canvas 0 0 450 300 (subpatch) 0;
#X array s2 77607 float 2;
#X coords 0 1 77607 -1 200 140 1 0 0;
#X restore 277 427 graph;
#N canvas 0 0 450 300 (subpatch) 0;
#X array s3 81152 float 2;
#X coords 0 1 81152 -1 200 140 1 0 0;
#X restore 479 427 graph;
#X obj 286 320 soundfiler;
#X floatatom 286 342 10 0 0 0 - - -;
#X obj 286 363 s sLength;
#X obj 472 320 soundfiler;
#X floatatom 472 342 10 0 0 0 - - -;
#X obj 472 363 s sLength;
#X obj 540 113 loadbang;
#X msg 540 135 3;
#X obj 540 157 s nbSamples;
#X obj 315 178 nextFileFrom;
#X obj 396 112 loadbang;
#X obj 396 156 list2symbol;
#X msg 396 134 list samples;
#X msg 100 298 read -resize \$1 s1;
#X msg 286 298 read -resize \$1 s2;
#X msg 472 298 read -resize \$1 s3;
#X obj 315 161 bng 15 250 50 0 empty empty empty 17 7 0 10 -262144
-1 -1;
#X obj 262 200 pack f s;
#X obj 262 222 route 0 1 2;
#X obj 100 276 list2symbol;
#X obj 286 276 list2symbol;
#X obj 472 276 list2symbol;
#X obj 262 89 t b b;
#X obj 262 23 loadbang;
#X obj 262 67 machinegun;
#X msg 262 45 3;
#X obj 262 112 f;
#X obj 262 134 + 1;
#X obj 262 156 % 3;
#X obj 262 178 t f f;
#X obj 396 90 r refreshSamples;
#X obj 262 1 r loadNextSamples;
#X obj 119 119 r loadSample;
#X obj 119 141 t f b;
#X obj 471 1 r nbSamples;
#X msg 471 23 \; pitchOffsets resize \$1;
#X connect 1 0 2 0;
#X connect 2 0 3 0;
#X connect 6 0 7 0;
#X connect 7 0 8 0;
#X connect 9 0 10 0;
#X connect 10 0 11 0;
#X connect 12 0 13 0;
#X connect 13 0 14 0;
#X connect 15 0 23 1;
#X connect 16 0 18 0;
#X connect 17 0 15 1;
#X connect 18 0 17 0;
#X connect 19 0 1 0;
#X connect 20 0 6 0;
#X connect 21 0 9 0;
#X connect 22 0 15 0;
#X connect 23 0 24 0;
#X connect 24 0 25 0;
#X connect 24 1 26 0;
#X connect 24 2 27 0;
#X connect 25 0 19 0;
#X connect 26 0 20 0;
#X connect 27 0 21 0;
#X connect 28 0 32 0;
#X connect 28 1 22 0;
#X connect 29 0 31 0;
#X connect 30 0 28 0;
#X connect 31 0 30 0;
#X connect 32 0 33 0;
#X connect 33 0 34 0;
#X connect 34 0 35 0;
#X connect 35 0 23 0;
#X connect 35 1 32 1;
#X connect 36 0 16 0;
#X connect 37 0 29 0;
#X connect 38 0 39 0;
#X connect 39 0 23 0;
#X connect 39 1 22 0;
#X connect 40 0 41 0;
