#N canvas 318 43 1093 738 12;
#X obj 375 635 outlet~;
#X obj 102 565 s fEchant;
#X floatatom 102 546 5 0 0 0 - - -;
#X obj 110 125 r fEchant;
#X obj 41 125 r sLength;
#X obj 41 169 /;
#X obj 41 147 trigBoth;
#X obj 41 191 * 1000;
#X obj 102 502 loadbang;
#X msg 102 524 44100;
#X obj 102 338 vline~;
#X obj 417 25 inlet;
#X obj 212 480 *~;
#X obj 230 458 r sLength;
#X obj 102 272 trigBoth;
#X obj 102 294 /;
#X obj 327 499 tabread4~ s1;
#X msg 481 403 set s\$1;
#X obj 660 288 + 1;
#X obj 687 288 + 0.5;
#X obj 687 310 trigBoth;
#X obj 687 332 /~;
#X obj 375 589 *~;
#X obj 430 589 *~;
#X obj 686 376 expr~ 1-$v1;
#X obj 430 635 outlet~;
#X obj 660 310 int;
#X obj 327 521 *~;
#X obj 344 414 / 16;
#X obj 344 392 + 1;
#X obj 212 142 r maxPitch;
#X obj 212 164 / 2;
#X obj 194 186 -;
#X obj 194 252 pow;
#X msg 194 230 2;
#X obj 194 208 t b f;
#X obj 226 230 / 12;
#X obj 417 47 unpack f f f f;
#X msg 102 316 0 \, 1 \$1;
#X obj 480 341 vline~;
#X msg 480 319 1 \, 0 10 \$1;
#X obj 344 436 *~;
#X obj 498 275 r tempo;
#X obj 480 297 *;
#X obj 660 266 t f f f;
#X floatatom 392 123 5 0 0 0 - - -;
#X obj 706 431 s \$0-sampleIndex;
#X obj 392 101 r \$0-sampleIndex;
#X obj 392 144 tabread pitchOffsets;
#X obj 374 166 +;
#X obj 680 143 != -1;
#X obj 660 165 spigot;
#X obj 708 165 == -1;
#X obj 660 121 t f f f;
#X obj 708 187 s \$0-mute;
#X obj 184 404 invert;
#X obj 184 382 r \$0-mute;
#X obj 166 426 *~;
#X obj 740 288 r nbFinalTypes;
#X connect 2 0 1 0;
#X connect 3 0 6 1;
#X connect 4 0 6 0;
#X connect 5 0 7 0;
#X connect 6 0 5 0;
#X connect 6 1 5 1;
#X connect 7 0 14 0;
#X connect 8 0 9 0;
#X connect 9 0 2 0;
#X connect 10 0 57 0;
#X connect 11 0 37 0;
#X connect 12 0 16 0;
#X connect 13 0 12 1;
#X connect 14 0 15 0;
#X connect 14 1 15 1;
#X connect 15 0 38 0;
#X connect 16 0 27 0;
#X connect 17 0 16 0;
#X connect 18 0 26 0;
#X connect 19 0 20 0;
#X connect 20 0 21 0;
#X connect 20 1 21 1;
#X connect 21 0 22 1;
#X connect 21 0 24 0;
#X connect 22 0 0 0;
#X connect 23 0 25 0;
#X connect 24 0 23 1;
#X connect 26 0 17 0;
#X connect 27 0 22 0;
#X connect 27 0 23 0;
#X connect 28 0 41 0;
#X connect 29 0 28 0;
#X connect 30 0 31 0;
#X connect 31 0 32 1;
#X connect 32 0 35 0;
#X connect 33 0 14 1;
#X connect 34 0 33 0;
#X connect 35 0 34 0;
#X connect 35 1 36 0;
#X connect 36 0 33 1;
#X connect 37 0 49 0;
#X connect 37 1 29 0;
#X connect 37 2 43 0;
#X connect 37 3 53 0;
#X connect 38 0 10 0;
#X connect 39 0 41 1;
#X connect 40 0 39 0;
#X connect 41 0 27 1;
#X connect 42 0 43 1;
#X connect 43 0 40 0;
#X connect 44 0 18 0;
#X connect 44 1 19 0;
#X connect 44 2 46 0;
#X connect 45 0 48 0;
#X connect 47 0 45 0;
#X connect 48 0 49 1;
#X connect 49 0 32 0;
#X connect 50 0 51 1;
#X connect 51 0 44 0;
#X connect 52 0 54 0;
#X connect 53 0 51 0;
#X connect 53 1 50 0;
#X connect 53 2 52 0;
#X connect 55 0 57 1;
#X connect 56 0 55 0;
#X connect 57 0 12 0;
#X connect 58 0 20 1;
