#N canvas 621 300 277 251 10;
#X obj 115 84 inlet;
#X obj 115 160 outlet;
#X msg 115 122 44100;
#X obj 115 141 /;
#X obj 115 103 t b f;
#X connect 0 0 4 0;
#X connect 2 0 3 0;
#X connect 3 0 1 0;
#X connect 4 0 2 0;
#X connect 4 1 3 1;
