#N canvas 142 284 1016 511 10;
#X obj 357 305 packel;
#X floatatom 357 324 5 0 0 0 - - -;
#X obj 357 286 l;
#X obj 357 267 t b f;
#X obj 333 83 f;
#X obj 357 83 + 1;
#X obj 333 195 spigot;
#X obj 333 102 t f f;
#X obj 389 155 <;
#X obj 333 121 t b f f;
#X obj 404 136 - 1;
#X obj 357 229 t f f;
#X obj 357 342 outlet;
#X obj 399 342 outlet;
#X obj 419 24 inlet;
#X obj 333 26 inlet;
#X obj 357 248 +;
#X msg 333 64 0;
#X obj 491 24 inlet;
#X obj 404 117 -;
#X obj 404 98 f;
#X obj 404 79 t b f;
#X text 331 12 min;
#X text 417 10 max;
#X text 489 10 list;
#X obj 333 45 t b f f;
#X connect 0 0 1 0;
#X connect 1 0 12 0;
#X connect 2 0 0 0;
#X connect 3 0 2 0;
#X connect 3 1 0 1;
#X connect 4 0 7 0;
#X connect 5 0 4 1;
#X connect 6 0 4 0;
#X connect 7 0 9 0;
#X connect 7 1 5 0;
#X connect 8 0 6 1;
#X connect 9 0 6 0;
#X connect 9 1 11 0;
#X connect 9 2 8 0;
#X connect 10 0 8 1;
#X connect 11 0 16 0;
#X connect 11 1 13 0;
#X connect 14 0 20 1;
#X connect 15 0 25 0;
#X connect 16 0 3 0;
#X connect 17 0 4 0;
#X connect 18 0 2 1;
#X connect 19 0 10 0;
#X connect 20 0 19 0;
#X connect 21 0 20 0;
#X connect 21 1 19 1;
#X connect 25 0 17 0;
#X connect 25 1 21 0;
#X connect 25 2 16 1;
#X coords 0 0 1 1 20 35 0;
