#N canvas 510 271 523 409 10;
#X obj 130 69 inlet;
#X obj 172 69 inlet;
#X obj 172 88 t b f;
#X obj 172 126 f;
#X obj 130 88 t f b;
#X obj 172 107 t b f;
#X obj 130 126 f;
#X obj 130 107 t b f;
#X obj 130 145 outlet;
#X obj 172 145 outlet;
#X connect 0 0 4 0;
#X connect 1 0 2 0;
#X connect 2 0 6 0;
#X connect 2 1 5 0;
#X connect 3 0 9 0;
#X connect 4 0 7 0;
#X connect 4 1 3 0;
#X connect 5 0 3 0;
#X connect 5 1 3 1;
#X connect 6 0 8 0;
#X connect 7 0 6 0;
#X connect 7 1 6 1;
#X coords 0 0 1 1 20 35 0;
